{"title":"Laali Ki Shaadi Mein Laaddoo Deewana 2017 Hindi Movies HD TS Cle","magnet":"magnet:?xt=urn:btih:75b078df3e1f78c4f18dcacc1b4cbf5bb5a629e4&dn=Laali+Ki+Shaadi+Mein+Laaddoo+Deewana+2017+Hindi+Movies+HD+TS+Cle&tr=udp%3A%2F%2Ftracker.leechers-paradise.org%3A6969&tr=udp%3A%2F%2Fzer0day.ch%3A1337&tr=udp%3A%2F%2Fopen.demonii.com%3A1337&tr=udp%3A%2F%2Ftracker.coppersurfer.tk%3A6969&tr=udp%3A%2F%2Fexodus.desync.com%3A6969","uploader":"basicssom","categoryP":"video","categoryS":"movies","size":"738824482","seeders":"3","leechers":"657","description":"----------------------------------------------------------------\r\nLaali Ki Shaadi Mein Laaddoo Deewana 2017 Hindi Movies HD TS Clean Audio AAC New +Sample &#x263B;rDX&#x263B;\r\n\r\nSCREEN SHOTS &amp; POSTER:\r\n   <a href=\"\nhttp://postimage.co.nr/2017/6/discount/index.html\" rel=\"nofollow\" target=\"_NEW\">\nhttp://postimage.co.nr/2017/6/discount/index.html</a>  <a href=\"\nhttp://postimage.co.nr/2017/6/discount/1.html\" rel=\"nofollow\" target=\"_NEW\">\nhttp://postimage.co.nr/2017/6/discount/1.html</a>   <a href=\"\nhttp://postimage.co.nr/2017/6/discount/2.html\" rel=\"nofollow\" target=\"_NEW\">\nhttp://postimage.co.nr/2017/6/discount/2.html</a>   <a href=\"\nhttp://postimage.co.nr/2017/6/discount/3.html\" rel=\"nofollow\" target=\"_NEW\">\nhttp://postimage.co.nr/2017/6/discount/3.html</a>   <a href=\"\nhttp://postimage.co.nr/2017/6/discount/4.html\" rel=\"nofollow\" target=\"_NEW\">\nhttp://postimage.co.nr/2017/6/discount/4.html</a>   <a href=\"\nhttp://postimage.co.nr/2017/6/discount/5.html\" rel=\"nofollow\" target=\"_NEW\">\nhttp://postimage.co.nr/2017/6/discount/5.html</a>   <a href=\"\nhttp://postimage.co.nr/2017/6/discount/6.html\" rel=\"nofollow\" target=\"_NEW\">\nhttp://postimage.co.nr/2017/6/discount/6.html</a>   <a href=\"\nhttp://postimage.co.nr/2017/6/discount/7.html\" rel=\"nofollow\" target=\"_NEW\">\nhttp://postimage.co.nr/2017/6/discount/7.html</a>   <a href=\"\nhttp://postimage.co.nr/2017/6/discount/8.html\" rel=\"nofollow\" target=\"_NEW\">\nhttp://postimage.co.nr/2017/6/discount/8.html</a>   <a href=\"\nhttp://postimage.co.nr/2017/6/discount/9.html\" rel=\"nofollow\" target=\"_NEW\">\nhttp://postimage.co.nr/2017/6/discount/9.html</a>   <a href=\"\nhttp://postimage.co.nr/2017/6/discount/10.html\" rel=\"nofollow\" target=\"_NEW\">\nhttp://postimage.co.nr/2017/6/discount/10.html</a>\r\n\r\nFile size                                : 698 MiB\r\nDuration                                 : 2 h 6 min\r\nOverall bit rate mode                    : Constant\r\nOverall bit rate                         : 773 kb/s\r\nMovie name                               : Laali Ki Shaadi Mein Laaddoo Deewana 2017 Hindi Movies HD TS Clean Audio AAC New &#x263B;rDX&#x263B;\r\n\r\nVideo\r\nID                                       : 2\r\nFormat                                   : AVC\r\nFormat/Info                              : Advanced Video Codec\r\nFormat profile                           : <a class=\"__cf_email__\" href=\"/cdn-cgi/l/email-protection\" data-cfemail=\"135e727a7d535f20\">[email&#xA0;protected]</a><script data-cfhash=\"f9e31\" type=\"text/javascript\">/* <![CDATA[ */!function(t,e,r,n,c,a,p){try{t=document.currentScript||function(){for(t=document.getElementsByTagName('script'),e=t.length;e--;)if(t[e].getAttribute('data-cfhash'))return t[e]}();if(t&&(c=t.previousSibling)){p=t.parentNode;if(a=c.getAttribute('data-cfemail')){for(e='',r='0x'+a.substr(0,2)|0,n=2;a.length-n;n+=2)e+='%'+('0'+('0x'+a.substr(n,2)^r).toString(16)).slice(-2);p.replaceChild(document.createTextNode(decodeURIComponent(e)),c)}p.removeChild(t)}}catch(u){}}()/* ]]> */</script>\r\nFormat settings, CABAC                   : Yes\r\nFormat settings, ReFrames                : 2 frames\r\nFormat settings, GOP                     : M=1, N=12\r\nCodec ID                                 : V_MPEG4/ISO/AVC\r\nDuration                                 : 2 h 6 min\r\nBit rate mode                            : Constant\r\nBit rate                                 : 390 kb/s\r\nWidth                                    : 720 pixels\r\nHeight                                   : 304 pixels\r\nDisplay aspect ratio                     : 2.35:1\r\nFrame rate mode                          : Constant\r\nFrame rate                               : 25.000 FPS\r\nColor space                              : YUV\r\nChroma subsampling                       : 4:2:0\r\nBit depth                                : 8 bits\r\nScan type                                : Progressive\r\nBits/(Pixel*Frame)                       : 0.071\r\nStream size                              : 337 MiB (48%)\r\nTitle                                    : &#x263B;rDX&#x263B;\r\nDefault                                  : Yes\r\nForced                                   : No\r\n\r\nAudio\r\nID                                       : 1\r\nFormat                                   : AC-3\r\nFormat/Info                              : Audio Coding 3\r\nMode extension                           : CM (complete main)\r\nFormat settings, Endianness              : Big\r\nCodec ID                                 : A_AC3\r\nDuration                                 : 2 h 6 min\r\nBit rate mode                            : Constant\r\nBit rate                                 : 384 kb/s\r\nChannel(s)                               : 6 channels\r\nChannel positions                        : Front: L C R, Side: L R, LFE\r\nSampling rate                            : 48.0 kHz\r\nFrame rate                               : 31.250 FPS (1536 spf)\r\nBit depth                                : 16 bits\r\nCompression mode                         : Lossy\r\nStream size                              : 347 MiB (50%)\r\nTitle                                    : &#x263B;rDX&#x263B;\r\nDefault                                  : Yes\r\nForced                                   : No","last_updated":"2017-06-17T12:03:06.722Z","parsed":{"xt":"urn:btih:75b078df3e1f78c4f18dcacc1b4cbf5bb5a629e4","dn":"Laali Ki Shaadi Mein Laaddoo Deewana 2017 Hindi Movies HD TS Cle","tr":["udp://exodus.desync.com:6969","udp://open.demonii.com:1337","udp://tracker.coppersurfer.tk:6969","udp://tracker.leechers-paradise.org:6969","udp://zer0day.ch:1337"],"infoHash":"75b078df3e1f78c4f18dcacc1b4cbf5bb5a629e4","infoHashBuffer":{"type":"Buffer","data":[117,176,120,223,62,31,120,196,241,141,202,204,27,76,191,91,181,166,41,228]},"name":"Laali Ki Shaadi Mein Laaddoo Deewana 2017 Hindi Movies HD TS Cle","announce":["udp://exodus.desync.com:6969","udp://open.demonii.com:1337","udp://tracker.coppersurfer.tk:6969","udp://tracker.leechers-paradise.org:6969","udp://zer0day.ch:1337"],"urlList":[]}}